<svg width="48" height="48" viewBox="0 0 48 48" fill="none" xmlns="http://www.w3.org/2000/svg">
<g filter="url(#filter0_d)">
<path d="M4 20C4 8.95431 12.9543 0 24 0C35.0457 0 44 8.95431 44 20C44 31.0457 35.0457 40 24 40C12.9543 40 4 31.0457 4 20Z" fill="#F7F7F7"/>
<path d="M24.0088 7.7017C28.019 7.7017 28.4938 7.71928 30.0709 7.78961C31.5366 7.85407 32.3281 8.10021 32.8558 8.30533C33.5534 8.57492 34.0576 8.90311 34.5794 9.42469C35.1071 9.95214 35.4295 10.4503 35.7051 11.1477C35.9103 11.6751 36.1565 12.4722 36.221 13.9314C36.2914 15.5138 36.309 15.9885 36.309 19.9912C36.309 23.9939 36.2914 24.4745 36.221 26.051C36.1565 27.5161 35.9103 28.3073 35.7051 28.8347C35.4354 29.5321 35.1071 30.0361 34.5853 30.5577C34.0576 31.0852 33.5593 31.4075 32.8616 31.6829C32.334 31.8881 31.5366 32.1342 30.0768 32.1987C28.4938 32.269 28.019 32.2866 24.0147 32.2866C20.0104 32.2866 19.5296 32.269 17.9525 32.1987C16.4868 32.1342 15.6953 31.8881 15.1677 31.6829C14.47 31.4134 13.9658 31.0852 13.444 30.5636C12.9164 30.0361 12.5939 29.538 12.3184 28.8406C12.1132 28.3131 11.8669 27.5161 11.8024 26.0568C11.7321 24.4745 11.7145 23.9998 11.7145 19.9971C11.7145 15.9943 11.7321 15.5138 11.8024 13.9373C11.8669 12.4722 12.1132 11.681 12.3184 11.1535C12.588 10.4561 12.9164 9.95214 13.4381 9.43055C13.9658 8.90311 14.4641 8.58078 15.1618 8.30533C15.6895 8.10021 16.4868 7.85407 17.9466 7.78961C19.5237 7.71928 19.9986 7.7017 24.0088 7.7017ZM24.0088 5C19.9341 5 19.4241 5.01758 17.8235 5.08791C16.2288 5.15823 15.1325 5.4161 14.1827 5.78531C13.1919 6.1721 12.3535 6.68197 11.521 7.52002C10.6826 8.35222 10.1726 9.19027 9.78562 10.1748C9.41626 11.1301 9.1583 12.2202 9.08794 13.8142C9.01759 15.42 9 15.9299 9 20.0029C9 24.076 9.01759 24.5859 9.08794 26.1858C9.1583 27.7798 9.41626 28.8758 9.78562 29.8252C10.1726 30.8156 10.6826 31.6536 11.521 32.4858C12.3535 33.318 13.1919 33.8338 14.1769 34.2147C15.1325 34.5839 16.223 34.8418 17.8177 34.9121C19.4182 34.9824 19.9283 35 24.0029 35C28.0776 35 28.5876 34.9824 30.1882 34.9121C31.7829 34.8418 32.8792 34.5839 33.829 34.2147C34.814 33.8338 35.6523 33.318 36.4849 32.4858C37.3174 31.6536 37.8333 30.8156 38.2144 29.831C38.5837 28.8758 38.8417 27.7857 38.9121 26.1916C38.9824 24.5917 39 24.0819 39 20.0088C39 15.9357 38.9824 15.4259 38.9121 13.8259C38.8417 12.2319 38.5837 11.136 38.2144 10.1866C37.845 9.19027 37.335 8.35222 36.4966 7.52002C35.6641 6.68783 34.8257 6.1721 33.8407 5.79117C32.8851 5.42196 31.7946 5.16409 30.1999 5.09377C28.5935 5.01758 28.0834 5 24.0088 5V5Z" fill="#134731"/>
<path d="M24.0088 12.2964C19.7524 12.2964 16.2992 15.7482 16.2992 20.003C16.2992 24.2577 19.7524 27.7096 24.0088 27.7096C28.2652 27.7096 31.7184 24.2577 31.7184 20.003C31.7184 15.7482 28.2652 12.2964 24.0088 12.2964ZM24.0088 25.002C21.2474 25.002 19.0078 22.7633 19.0078 20.003C19.0078 17.2427 21.2474 15.0039 24.0088 15.0039C26.7702 15.0039 29.0098 17.2427 29.0098 20.003C29.0098 22.7633 26.7702 25.002 24.0088 25.002Z" fill="#134731"/>
<path d="M33.8232 11.9916C33.8232 12.9853 33.0174 13.7907 32.0233 13.7907C31.0292 13.7907 30.2234 12.9853 30.2234 11.9916C30.2234 10.9979 31.0292 10.1924 32.0233 10.1924C33.0174 10.1924 33.8232 10.9979 33.8232 11.9916Z" fill="#134731"/>
</g>
<defs>
<filter id="filter0_d" x="0" y="0" width="48" height="48" filterUnits="userSpaceOnUse" color-interpolation-filters="sRGB">
<feFlood flood-opacity="0" result="BackgroundImageFix"/>
<feColorMatrix in="SourceAlpha" type="matrix" values="0 0 0 0 0 0 0 0 0 0 0 0 0 0 0 0 0 0 127 0"/>
<feOffset dy="4"/>
<feGaussianBlur stdDeviation="2"/>
<feColorMatrix type="matrix" values="0 0 0 0 0 0 0 0 0 0 0 0 0 0 0 0 0 0 0.25 0"/>
<feBlend mode="normal" in2="BackgroundImageFix" result="effect1_dropShadow"/>
<feBlend mode="normal" in="SourceGraphic" in2="effect1_dropShadow" result="shape"/>
</filter>
</defs>
</svg>
